<?xml version="1.0" encoding="UTF-8"?>
<svg id="Lag_1" data-name="Lag 1" xmlns="http://www.w3.org/2000/svg" viewBox="0 0 54.46 38.2">
  <defs>
    <style>
      .cls-1 {
        fill: none;
      }

      .cls-1, .cls-2 {
        stroke: #333;
        stroke-miterlimit: 10;
      }

      .cls-2 {
        fill: #666;
      }
    </style>
  </defs>
  <path class="cls-1" d="M49.32,1.57c-4.9-1.47-8.6-1.18-11.11-.6-5.43,1.25-6.73,4.14-11.27,4.03-3.76-.09-4.65-2.11-9.31-3.43-3.22-.91-7.26-1.22-12.25,0v26.47h5.39c2.22.23,5.65.77,9.64,2.19,4.84,1.71,5.9,3.09,8.66,2.88,3.97-.3,4.8-3.37,9.31-5.07,2.25-.85,5.78-1.48,10.95,0V1.57Z"/>
  <path class="cls-1" d="M54.13,7.66l-4.64-.1,4.64.1Z"/>
  <path class="cls-1" d="M4.94,6.79c-1.12-.1-2.52-.02-3.53.84-2.73,2.34,1.66,7.63.53,16.82-.78,6.3-2.4,10.29-.42,11.98,1.95,1.68,4.72-1.2,11.25-1.47,7.05-.29,7.71,2.9,14.58,2.73,6.09-.15,7.25-2.7,13.91-3.36,5.33-.53,9.81.58,12.71,1.58V7.19"/>
  <line class="cls-2" x1="26.93" y1="5" x2="27.34" y2="33.01"/>
</svg>