<?xml version="1.0" encoding="UTF-8"?>
<svg id="Lag_1" data-name="Lag 1" xmlns="http://www.w3.org/2000/svg" viewBox="0 0 84.87 80.85">
  <defs>
    <style>
      .cls-1 {
        fill: none;
        stroke: #333;
        stroke-miterlimit: 10;
      }

      .cls-2 {
        fill: #333;
      }
    </style>
  </defs>
  <path class="cls-1" d="M10.83,10.82c1.32-1.41,3.42-3.25,6.41-4.44,4.64-1.85,8.78-1.1,14.8,0,4.06.74,6.13,1.14,8.14,2.71,3.34,2.61,4.34,6.35,4.69,7.65.41,1.53,1.18,4.57,0,8.14-.36,1.09-1.7,5.13-5.92,7.15-3.9,1.87-7.87-1.87-9.62,0-.89.95-.19,2.08-1.17,3.3-1.23,1.52-3.77,1.53-5.9,1.24,1.2-1.83,2.36-4.09,1.56-5.18-.99-1.35-3.89.53-7.36-.52-4.98-1.51-6.94-7.77-7.15-8.5-1.74-5.83,1.02-10.69,1.53-11.55Z"/>
  <path class="cls-1" d="M61.01,25.71c2.25-4.13,6.28-4.44,7.93-7.17,2.14-3.55-.55-9.83-3.96-13.28C60.83,1.08,55.39.87,48.93.61c-5.66-.22-9.65-.38-12.83,2.45-3.8,3.39-3.92,8.77-3.96,10.95-.05,2.33-.14,6.71,2.83,10.19,4.24,4.97,12.8,5.85,15.86,3.96.33-.2,1.34-.9,2.26-.57.94.34,1.02,1.48,1.7,2.64,1.5,2.57,5.09,3.76,5.85,3.02.61-.6-.95-2.15-.57-4.91.17-1.2.62-2.04.94-2.64Z"/>
  <path class="cls-2" d="M0,79.36c.85-.17,7.52-1.58,10.21-7.47.43-.93,1.48-3.32,1-6.23-.71-4.25-3.9-4.73-5.58-8.72-1.69-4.02-1.06-9.76,2.34-13.45,3.85-4.18,9.56-3.86,11.71-3.74,1.18.07,8.51.48,10.46,4.75,1.14,2.49-.61,3.97.98,6.95.59,1.11.95,1.13,3.5,4.73,1.31,1.85,1.74,2.59,1.5,3.33-.38,1.21-2.05.95-2.75,2.4-.49,1.02.12,1.61,0,3.49-.02.36-.15,2.39-1,3.49-2.16,2.8-9.07-.46-9.96,1.25-.55,1.05,1.36,3.63,3.74,4.98,3.26,1.85,5.77.47,8.72,2.49,1.47,1.01,2.29,2.35,2.74,3.24"/>
  <path class="cls-2" d="M84.87,79.94c-.85-.18-7.49-1.7-10.09-7.64-.41-.94-1.43-3.34-.9-6.24.78-4.24,3.98-4.67,5.72-8.63,1.75-3.99,1.21-9.75-2.12-13.48-3.78-4.24-9.5-4.01-11.64-3.92-1.18.05-8.52.34-10.54,4.58-1.18,2.47.55,3.97-1.1,6.94-.61,1.1-.97,1.11-3.58,4.67-1.34,1.83-1.78,2.56-1.56,3.31.36,1.21,2.04.99,2.71,2.44.48,1.03-.15,1.61-.06,3.49.02.36.11,2.4.94,3.5,2.11,2.83,9.08-.31,9.94,1.41.53,1.06-1.42,3.61-3.82,4.92-3.29,1.8-5.78.37-8.76,2.35-1.49.99-2.33,2.31-2.79,3.19"/>
</svg>